<svg id="Logo" xmlns="http://www.w3.org/2000/svg" viewBox="0 0 377.8 377.86"><defs><style>.cls-1{fill:#fff;}.cls-2{fill:none;stroke:#fff;stroke-miterlimit:10;stroke-width:3px;}</style></defs><title>header-logo</title><path class="cls-1" d="M4971.9,1597.85a17.54,17.54,0,0,1,3.92,1,29.86,29.86,0,0,1,22.71,25.86,27.49,27.49,0,0,1-1.24,12.47,1.83,1.83,0,0,0,.57,2.17q29.83,29.78,59.61,59.63a1.83,1.83,0,0,0,2.16.53,29.8,29.8,0,0,1,38.75,32c-0.38,3.05-1.48,6-2.34,9.41-0.8-.75-1.22-1.12-1.61-1.51q-9.06-9-18.11-18.1c-4.16-4.14-9.7-4.54-13.93-1.08a9.84,9.84,0,0,0-1.73,13.34,19.28,19.28,0,0,0,1.94,2.23q8.82,8.85,17.67,17.66a13.14,13.14,0,0,0,1.62,1.15,28.26,28.26,0,0,1-13.71,3.13c-15.8-.53-27.77-12-29.17-27.85a28,28,0,0,1,1.37-11.21,1.72,1.72,0,0,0-.48-2q-29.88-29.84-59.72-59.73a1.82,1.82,0,0,0-2.19-.47c-15.64,5.3-34.7-4.2-38.46-22.66-1.23-6-.18-13.71,2.54-18.44,0.42,0.4.82,0.77,1.21,1.16q9.06,9,18.12,18.09c4.18,4.15,9.68,4.53,13.92,1a9.91,9.91,0,0,0,1.68-13.36,18.69,18.69,0,0,0-1.84-2.12q-8.82-8.85-17.67-17.66a13.94,13.94,0,0,0-1.59-1.29c3.6-2,7.17-2.37,10.7-3.37h5.31Z" transform="translate(-4824.4 -1494.55)"/><path class="cls-1" d="M4939,1741.43c1-4.88,3.53-8.31,6.87-11.64,15.13-15,30.14-30.15,45.21-45.24a11.89,11.89,0,0,0,1-1.27l21.24,21.32c-0.21.22-.57,0.6-0.93,1L4965,1752.93c-4.45,4.44-9.69,6.2-15.8,4.24-5.57-1.78-8.75-5.75-10-11.42a5.47,5.47,0,0,1-.18-1.19v-3.12Z" transform="translate(-4824.4 -1494.55)"/><path class="cls-1" d="M5088.39,1597.85c2.87,3,5.73,6,8.62,8.89a22.54,22.54,0,0,0,1.79,1.53c-3.78,7.3-7.39,14.35-11.06,21.33a3.58,3.58,0,0,1-1.52,1.24c-6.22,3.24-12.46,6.44-18.67,9.71a11.58,11.58,0,0,0-2.73,2q-11.79,11.72-23.52,23.49c-0.4.4-.81,0.78-1.1,1.05l-10.52-10.47c0.26-.28.63-0.7,1-1.09q11.8-11.82,23.58-23.65a11.09,11.09,0,0,0,1.92-2.61c3.27-6.21,6.45-12.46,9.74-18.65a5.42,5.42,0,0,1,2-2.1c6.69-3.57,13.42-7.69,20.14-10.69h0.31Z" transform="translate(-4824.4 -1494.55)"/><circle class="cls-2" cx="188.89" cy="188.77" r="144.18"/><path class="cls-1" d="M5024.6,1498.5a4.82,4.82,0,0,0-4.22,1.8,9.33,9.33,0,0,0-1.73,5.51q-0.36,7.45,5.23,7.72a17.68,17.68,0,0,0,5.74-.9l-0.19,4a15.8,15.8,0,0,1-6.18.85q-4.86-.23-7.29-3.3t-2.17-8.58a13.83,13.83,0,0,1,1.56-6,9.15,9.15,0,0,1,3.82-3.83,10.76,10.76,0,0,1,5.62-1.13,15,15,0,0,1,6.44,1.88l-1.71,3.77a25.28,25.28,0,0,0-2.46-1.16A7.49,7.49,0,0,0,5024.6,1498.5Z" transform="translate(-4824.4 -1494.55)"/><path class="cls-1" d="M5046.2,1520l-12.68-2,3.47-22,12.68,2-0.6,3.83-8-1.26-0.76,4.83,7.46,1.17-0.6,3.83-7.46-1.17-0.89,5.68,8,1.26Z" transform="translate(-4824.4 -1494.55)"/><path class="cls-1" d="M5057,1513.78l-2.26,8.25-4.56-1.25,5.89-21.5,6.26,1.72q4.38,1.2,6,3.37a6.6,6.6,0,0,1-1.19,8.51,7.16,7.16,0,0,1-3.59,1.51q2.87,8.58,3.76,11.1l-5.06-1.39-2.87-9.66Zm1-3.71,1.47,0.4a5.84,5.84,0,0,0,3.39.15,2.67,2.67,0,0,0,1.65-2,2.44,2.44,0,0,0-.46-2.46,6.61,6.61,0,0,0-3.08-1.54l-1.38-.38Z" transform="translate(-4824.4 -1494.55)"/><path class="cls-1" d="M5077.35,1529.61l-4.39-1.76,6.83-17-5.62-2.25,1.46-3.65,15.63,6.26-1.46,3.65-5.62-2.25Z" transform="translate(-4824.4 -1494.55)"/><path class="cls-1" d="M5085.61,1533.32l10-19.93,4.23,2.12-10,19.93Z" transform="translate(-4824.4 -1494.55)"/><path class="cls-1" d="M5098.42,1540.23l-4-2.41,11.54-19.07,10.93,6.62-2,3.31-7-4.21-3,4.92,6.47,3.92-2,3.3-6.47-3.92Z" transform="translate(-4824.4 -1494.55)"/><path class="cls-1" d="M5108.55,1546.77l13-18.09,3.84,2.76-13,18.09Z" transform="translate(-4824.4 -1494.55)"/><path class="cls-1" d="M5126.33,1560.92l-9.78-8.32,14.44-17,9.78,8.32-2.51,3-6.18-5.25-3.17,3.73,5.75,4.89-2.51,3-5.75-4.89-3.72,4.38,6.18,5.26Z" transform="translate(-4824.4 -1494.55)"/><path class="cls-1" d="M5150.22,1569.44q-4,3.75-8.31,3.44t-8.3-4.64l-4.3-4.62,16.33-15.17,4.76,5.13q3.72,4,3.66,8.17T5150.22,1569.44Zm-3.43-3.51q5.26-4.89.94-9.54l-1.71-1.84-10.63,9.88,1.38,1.49Q5141.42,1570.92,5146.79,1565.93Z" transform="translate(-4824.4 -1494.55)"/><path class="cls-1" d="M5161.41,1594.25a5.76,5.76,0,0,1-5.17.82,9.44,9.44,0,0,1-4.79-4.08,14.2,14.2,0,0,1-2.37-6l3.66-2.42a26,26,0,0,0,.93,4,11.28,11.28,0,0,0,1.24,2.61,4.06,4.06,0,0,0,1.81,1.66,2,2,0,0,0,1.93-.28,2,2,0,0,0,.77-0.95,4.1,4.1,0,0,0,.23-1.44,27.78,27.78,0,0,0-.34-3.24,13.68,13.68,0,0,1-.15-3.57,6.91,6.91,0,0,1,.82-2.5,5.87,5.87,0,0,1,2-2,5.76,5.76,0,0,1,5-.9,8.33,8.33,0,0,1,4.47,3.69,13.07,13.07,0,0,1,1.49,3,22.83,22.83,0,0,1,.86,3.39l-3.91.76a22.3,22.3,0,0,0-.78-3,9.52,9.52,0,0,0-1-2.07,3,3,0,0,0-1.66-1.37,2.06,2.06,0,0,0-1.76.3,2,2,0,0,0-.75.84,3.19,3.19,0,0,0-.24,1.27,28.54,28.54,0,0,0,.35,3.36,11.93,11.93,0,0,1-.13,5.23A5.85,5.85,0,0,1,5161.41,1594.25Z" transform="translate(-4824.4 -1494.55)"/><path class="cls-1" d="M5162.27,1608.92l13.43-12.43-0.06-.12q-4.68,2.58-6.29,3.35l-9.34,4.5-1.83-3.81,20.08-9.68,2.79,5.8L5168,1608.69l0,0.08,17.79-2.36,2.79,5.8-20.08,9.68-1.91-4,9.51-4.58,1.56-.73q0.89-.4,4.76-2.06l-0.06-.12-18.22,2.4Z" transform="translate(-4824.4 -1494.55)"/><path class="cls-1" d="M5174,1639.53l4.59-3.11-2.4-7.76-5.55,0-1.5-4.87,23.71,0.91,1.71,5.52-19.05,14.16Zm8-5.36,7-4.82q0.82-.55,1.31-0.83-2,.1-10.07.1Z" transform="translate(-4824.4 -1494.55)"/><path class="cls-1" d="M5185.11,1649.69l-8.42,1.5-0.83-4.65,21.95-3.91,1.14,6.4q0.8,4.47-.45,6.91a6.6,6.6,0,0,1-8.2,2.58,7.17,7.17,0,0,1-2.9-2.6q-6.52,6.27-8.41,8.16l-0.92-5.16,7.49-6.74Zm3.78-.67,0.27,1.5a5.83,5.83,0,0,0,1.32,3.13,2.67,2.67,0,0,0,2.5.64,2.44,2.44,0,0,0,2-1.47,6.62,6.62,0,0,0,.07-3.44l-0.25-1.41Z" transform="translate(-4824.4 -1494.55)"/><path class="cls-1" d="M5179.57,1674.9l-0.3-4.72,18.32-1.17-0.39-6,3.93-.25,1.07,16.8-3.93.25-0.39-6Z" transform="translate(-4824.4 -1494.55)"/><path class="cls-1" d="M5194.55,1699.87a6.81,6.81,0,0,1-5.4-2.49,9.62,9.62,0,0,1-1.62-6.47l0.09-2-7.92-.35,0.21-4.72,22.27,1-0.31,7.11q-0.18,4.05-2,6.08A6.37,6.37,0,0,1,5194.55,1699.87Zm-3.06-10.82-0.07,1.55a5.18,5.18,0,0,0,.72,3.3,3,3,0,0,0,2.46,1.19,3.09,3.09,0,0,0,2.49-.8,4.25,4.25,0,0,0,.92-2.81l0.09-2.15Z" transform="translate(-4824.4 -1494.55)"/><path class="cls-1" d="M5175.8,1720.73l0.8-4.64,9.48,1.63,1.5-8.7-9.48-1.63,0.8-4.66,22,3.78-0.8,4.66-8.61-1.48-1.5,8.7,8.61,1.48-0.8,4.64Z" transform="translate(-4824.4 -1494.55)"/><path class="cls-1" d="M5179.07,1748.17q-5.27-1.71-7.25-5.23t-0.41-8.4q1.58-4.87,5.25-6.57t9,0q5.3,1.71,7.24,5.24t0.36,8.41q-1.58,4.89-5.23,6.57T5179.07,1748.17Zm5-15.48a9.32,9.32,0,0,0-5.79-.38,5,5,0,0,0-3.1,3.45q-1.74,5.38,5.41,7.7t8.9-3a5,5,0,0,0-.5-4.63A9.27,9.27,0,0,0,5184.08,1732.69Z" transform="translate(-4824.4 -1494.55)"/><path class="cls-1" d="M5158.15,1766l2.67-5.38,19.42-1.2,0.06-.12q-4.13-1.73-5.84-2.57l-9.4-4.66,1.88-3.78,20,9.9-2.65,5.34-19.26,1.26,0,0.09q4,1.72,5.61,2.52l9.45,4.68-1.89,3.81Z" transform="translate(-4824.4 -1494.55)"/><path class="cls-1" d="M5148.37,1780.88l7.09-10.71,18.59,12.31-7.09,10.7-3.23-2.14,4.48-6.76-4.08-2.7-4.17,6.29-3.23-2.14,4.17-6.29-4.79-3.17-4.48,6.76Z" transform="translate(-4824.4 -1494.55)"/><path class="cls-1" d="M5144.18,1799.56l-6.3-5.78,3.2-3.48,16.43,15.07-4.39,4.79q-3.07,3.35-5.76,3.84a6.6,6.6,0,0,1-7-5,7.17,7.17,0,0,1,.3-3.88q-8.94-1.37-11.59-1.73l3.55-3.87,9.9,1.86Zm2.83,2.6-1,1.12a5.84,5.84,0,0,0-1.69,2.94,2.67,2.67,0,0,0,1,2.38,2.44,2.44,0,0,0,2.4.72,6.62,6.62,0,0,0,2.78-2l1-1.06Z" transform="translate(-4824.4 -1494.55)"/><path class="cls-1" d="M5117.6,1813.26l9.67-8.45,14.67,16.78-9.67,8.45-2.55-2.92,6.11-5.34-3.22-3.69-5.68,5-2.55-2.92,5.68-5-3.78-4.33-6.11,5.34Z" transform="translate(-4824.4 -1494.55)"/><path class="cls-1" d="M5110.58,1837.18a6.81,6.81,0,0,1-1.31-5.8,9.62,9.62,0,0,1,4.15-5.23l1.66-1.16-4.55-6.5,3.87-2.71,12.79,18.26-5.83,4.08q-3.32,2.33-6.05,2.11A6.37,6.37,0,0,1,5110.58,1837.18Zm6.71-9-1.27.89a5.18,5.18,0,0,0-2.18,2.58,3,3,0,0,0,.55,2.68,3.09,3.09,0,0,0,2.15,1.49,4.25,4.25,0,0,0,2.78-1l1.76-1.23Z" transform="translate(-4824.4 -1494.55)"/><path class="cls-1" d="M5086.69,1832.9l3.93,3.92,7.17-3.83-1.08-5.44,4.49-2.4,3.62,23.45-5.1,2.73-17.52-16Zm6.79,6.88q5.38,5.3,6.07,6t1.06,1.13q-0.48-2-2-9.87Z" transform="translate(-4824.4 -1494.55)"/><path class="cls-1" d="M5079.94,1835.94l8.64,20.55-4.36,1.83-8.64-20.55Z" transform="translate(-4824.4 -1494.55)"/><path class="cls-1" d="M5068.94,1849.35l-2.59-8.15,4.51-1.43,6.74,21.25-6.19,2q-4.33,1.38-6.91.46a6.59,6.59,0,0,1-3.62-7.79,7.17,7.17,0,0,1,2.19-3.22q-7.07-5.64-9.19-7.27l5-1.59,7.66,6.54Zm1.16,3.66-1.45.46a5.83,5.83,0,0,0-2.93,1.71,2.67,2.67,0,0,0-.31,2.56,2.44,2.44,0,0,0,1.72,1.82,6.61,6.61,0,0,0,3.42-.38l1.37-.43Z" transform="translate(-4824.4 -1494.55)"/><path class="cls-1" d="M5047.05,1858.06a5.17,5.17,0,0,1-.52,3.73,4.83,4.83,0,0,1-6.39,1.06,6.17,6.17,0,0,1-1.17-7.07,4.76,4.76,0,0,1,6.38-1.06A5.18,5.18,0,0,1,5047.05,1858.06Z" transform="translate(-4824.4 -1494.55)"/><path class="cls-1" d="M5016,1868.48a4.82,4.82,0,0,0,4.08-2.11,9.33,9.33,0,0,0,1.32-5.62q-0.2-7.45-5.79-7.31a17.69,17.69,0,0,0-5.65,1.32l-0.1-4a15.79,15.79,0,0,1,6.1-1.31q4.86-.13,7.52,2.75t2.8,8.4a13.83,13.83,0,0,1-1.1,6.12,9.15,9.15,0,0,1-3.53,4.11,10.76,10.76,0,0,1-5.52,1.54,15,15,0,0,1-6.57-1.4l1.42-3.88a25.1,25.1,0,0,0,2.54,1A7.51,7.51,0,0,0,5016,1868.48Z" transform="translate(-4824.4 -1494.55)"/><path class="cls-1" d="M4992.81,1848.7l12.8,1-1.8,22.22-12.8-1,0.31-3.86,8.09,0.65,0.39-4.88-7.52-.61,0.31-3.86,7.52,0.61,0.46-5.73-8.09-.65Z" transform="translate(-4824.4 -1494.55)"/><path class="cls-1" d="M4982.52,1855.68l1.63-8.4,4.64,0.9-4.24,21.89-6.38-1.24q-4.46-.86-6.29-2.9a6.6,6.6,0,0,1,.54-8.58,7.17,7.17,0,0,1,3.47-1.77q-3.51-8.34-4.59-10.78l5.15,1,3.6,9.41Zm-0.73,3.77-1.5-.29a5.83,5.83,0,0,0-3.39.1,2.67,2.67,0,0,0-1.49,2.1,2.44,2.44,0,0,0,.64,2.42,6.61,6.61,0,0,0,3.19,1.3l1.41,0.27Z" transform="translate(-4824.4 -1494.55)"/><path class="cls-1" d="M4961,1841.45l4.51,1.42-5.51,17.51,5.77,1.82-1.18,3.75-16.06-5.05,1.18-3.75,5.77,1.82Z" transform="translate(-4824.4 -1494.55)"/><path class="cls-1" d="M4926.87,1851.45l6-13.13a8.32,8.32,0,0,1,2.8-3.48,7.19,7.19,0,0,1,4.09-1.27,11.41,11.41,0,0,1,4.91,1.14,9.46,9.46,0,0,1,5.17,4.77,7.82,7.82,0,0,1-.33,6.47l-5.95,13.07-4.29-2,5.65-12.42a5.71,5.71,0,0,0,.62-3.87,4.31,4.31,0,0,0-2.62-2.52,4.21,4.21,0,0,0-3.56-.29,5.74,5.74,0,0,0-2.53,3l-5.64,12.39Z" transform="translate(-4824.4 -1494.55)"/><path class="cls-1" d="M4927.94,1826.3l4,2.42-11.57,19.05-10.92-6.63,2-3.31,6.95,4.22,3-4.91-6.46-3.93,2-3.3,6.46,3.93Z" transform="translate(-4824.4 -1494.55)"/><path class="cls-1" d="M4889.83,1826.43l8.89-11.36a8.32,8.32,0,0,1,3.54-2.73,7.19,7.19,0,0,1,4.27-.28,11.41,11.41,0,0,1,4.5,2.26,9.46,9.46,0,0,1,3.9,5.85,7.82,7.82,0,0,1-1.84,6.22l-8.85,11.31-3.71-2.9,8.41-10.75a5.71,5.71,0,0,0,1.51-3.62,4.31,4.31,0,0,0-2-3.06,4.22,4.22,0,0,0-3.4-1.12,5.74,5.74,0,0,0-3.17,2.35l-8.39,10.72Z" transform="translate(-4824.4 -1494.55)"/><path class="cls-1" d="M4891,1796.46l9.1,9.06-15.73,15.8-9.1-9.06,2.73-2.75,5.75,5.72,3.45-3.47-5.35-5.32,2.73-2.75,5.35,5.32L4894,1805l-5.75-5.72Z" transform="translate(-4824.4 -1494.55)"/><path class="cls-1" d="M4867.81,1786.09q4.31-3.42,8.55-2.78t7.92,5.27l3.92,4.95-17.47,13.85-4.35-5.48q-3.39-4.28-3-8.43T4867.81,1786.09Zm3.15,3.77q-5.63,4.46-1.69,9.43l1.56,2,11.38-9-1.26-1.59Q4876.7,1785.31,4871,1789.87Z" transform="translate(-4824.4 -1494.55)"/><path class="cls-1" d="M4858.6,1760.48a5.76,5.76,0,0,1,5.21-.41,9.44,9.44,0,0,1,4.45,4.44,14.21,14.21,0,0,1,1.89,6.17l-3.84,2.13a26,26,0,0,0-.61-4,11.3,11.3,0,0,0-1-2.7,4.06,4.06,0,0,0-1.68-1.8,2,2,0,0,0-1.95.13,2,2,0,0,0-.84.89,4.09,4.09,0,0,0-.34,1.42,27.69,27.69,0,0,0,.08,3.26,13.7,13.7,0,0,1-.13,3.58,6.9,6.9,0,0,1-1,2.42,5.87,5.87,0,0,1-2.1,1.86,5.76,5.76,0,0,1-5,.5,8.33,8.33,0,0,1-4.17-4,13.09,13.09,0,0,1-1.25-3.1,22.85,22.85,0,0,1-.59-3.45l4-.45a22.33,22.33,0,0,0,.54,3.08,9.51,9.51,0,0,0,.86,2.15,3,3,0,0,0,1.54,1.5,2.06,2.06,0,0,0,1.77-.17,2,2,0,0,0,.81-0.78,3.18,3.18,0,0,0,.34-1.24,28.51,28.51,0,0,0-.09-3.38,11.93,11.93,0,0,1,.54-5.2A5.85,5.85,0,0,1,4858.6,1760.48Z" transform="translate(-4824.4 -1494.55)"/><path class="cls-1" d="M4858.91,1745.79l-14.37,11.33,0,0.13q4.87-2.2,6.53-2.84l9.67-3.75,1.53,3.94-20.79,8.06-2.33-6,14-11.08,0-.08-17.92.94-2.33-6,20.79-8.06,1.59,4.11-9.84,3.81-1.61.6q-0.92.33-4.91,1.68l0,0.13,18.36-1Z" transform="translate(-4824.4 -1494.55)"/><path class="cls-1" d="M4849.6,1714.34l-4.82,2.74,1.78,7.93,5.53,0.42,1.11,5-23.56-2.78-1.26-5.64,20.12-12.6Zm-8.45,4.71-7.41,4.25q-0.86.48-1.37,0.72,2,0.06,10,.7Z" transform="translate(-4824.4 -1494.55)"/><path class="cls-1" d="M4839.37,1703.32l8.51-.83,0.46,4.71-22.19,2.17-0.63-6.46q-0.44-4.52,1-6.85a6.6,6.6,0,0,1,8.38-1.92,7.16,7.16,0,0,1,2.69,2.82q7-5.74,9-7.47l0.51,5.22-8,6.13Zm-3.82.38-0.15-1.52a5.83,5.83,0,0,0-1.07-3.22,2.67,2.67,0,0,0-2.44-.83,2.44,2.44,0,0,0-2.14,1.3,6.62,6.62,0,0,0-.34,3.43l0.14,1.43Z" transform="translate(-4824.4 -1494.55)"/><path class="cls-1" d="M4846.87,1678.68l-0.08,4.73-18.36-.3-0.1,6.05-3.93-.06,0.27-16.83,3.93,0.06-0.1,6.05Z" transform="translate(-4824.4 -1494.55)"/><path class="cls-1" d="M4833.86,1652.6a6.81,6.81,0,0,1,5.19,2.9,9.62,9.62,0,0,1,1.11,6.58l-0.25,2,7.87,1-0.58,4.69-22.13-2.72L4826,1660q0.49-4,2.49-5.91A6.37,6.37,0,0,1,4833.86,1652.6Zm2.21,11,0.19-1.54a5.18,5.18,0,0,0-.46-3.34,3,3,0,0,0-2.36-1.38,3.09,3.09,0,0,0-2.55.6,4.25,4.25,0,0,0-1.13,2.73l-0.26,2.13Z" transform="translate(-4824.4 -1494.55)"/><path class="cls-1" d="M4854.2,1633.29l-1.16,4.57-9.32-2.37-2.18,8.56,9.32,2.37-1.17,4.58-21.6-5.5,1.17-4.58,8.47,2.16,2.18-8.56-8.47-2.16,1.16-4.57Z" transform="translate(-4824.4 -1494.55)"/><path class="cls-1" d="M4853.12,1605.65q5.11,2.12,6.81,5.79t-0.26,8.41q-2,4.73-5.76,6.13t-8.94-.73q-5.14-2.13-6.8-5.79t0.3-8.41q2-4.75,5.74-6.13T4853.12,1605.65Zm-6.22,15a9.31,9.31,0,0,0,5.74.84,5,5,0,0,0,3.37-3.19q2.16-5.23-4.78-8.1t-9.11,2.32a5,5,0,0,0,.13,4.66A9.27,9.27,0,0,0,4846.9,1620.68Z" transform="translate(-4824.4 -1494.55)"/><path class="cls-1" d="M4875.37,1589.54l-3.08,5.16-19.45-.33-0.07.12q4,2,5.62,3l9,5.38-2.17,3.63-19.13-11.44,3.06-5.12,19.3,0.26,0.05-.09q-3.85-2-5.39-3l-9.06-5.41,2.18-3.65Z" transform="translate(-4824.4 -1494.55)"/><path class="cls-1" d="M4886.3,1575.46l-7.91,10.12-17.56-13.73,7.91-10.12,3.05,2.38-5,6.39,3.86,3,4.65-5.95,3.05,2.39-4.65,5.95,4.53,3.54,5-6.39Z" transform="translate(-4824.4 -1494.55)"/><path class="cls-1" d="M4892,1557.15l5.83,6.26-3.46,3.22-15.2-16.31,4.75-4.43q3.32-3.1,6-3.37a6.6,6.6,0,0,1,6.61,5.49,7.16,7.16,0,0,1-.6,3.85q8.81,2.07,11.42,2.64l-3.84,3.58-9.73-2.63Zm-2.62-2.81,1.12-1a5.83,5.83,0,0,0,1.91-2.8,2.67,2.67,0,0,0-.82-2.45,2.44,2.44,0,0,0-2.34-.91,6.61,6.61,0,0,0-2.93,1.81l-1,1Z" transform="translate(-4824.4 -1494.55)"/><path class="cls-1" d="M4919.49,1545.6l-10.3,7.67-13.31-17.88,10.3-7.67,2.31,3.11-6.51,4.84,2.92,3.93,6.05-4.51,2.31,3.11-6.05,4.51,3.43,4.61,6.51-4.85Z" transform="translate(-4824.4 -1494.55)"/><path class="cls-1" d="M4928.39,1522.3a6.81,6.81,0,0,1,.85,5.88,9.62,9.62,0,0,1-4.54,4.89l-1.75,1,4,6.83-4.07,2.4-11.31-19.21,6.14-3.61q3.5-2.06,6.2-1.63A6.37,6.37,0,0,1,4928.39,1522.3Zm-7.4,8.46,1.34-.79a5.18,5.18,0,0,0,2.37-2.4,3,3,0,0,0-.34-2.71,3.09,3.09,0,0,0-2-1.65,4.25,4.25,0,0,0-2.85.76l-1.85,1.09Z" transform="translate(-4824.4 -1494.55)"/><path class="cls-1" d="M4951.86,1528.45l-3.61-4.21-7.45,3.26,0.65,5.51-4.67,2-1.76-23.66,5.29-2.32,16.2,17.34Zm-6.23-7.39q-4.94-5.71-5.58-6.46t-1-1.21q0.32,2,1.23,10Z" transform="translate(-4824.4 -1494.55)"/><path class="cls-1" d="M4958.83,1525.95l-7-21.17,4.49-1.48,7,21.17Z" transform="translate(-4824.4 -1494.55)"/><path class="cls-1" d="M4970.86,1513.45l1.93,8.33-4.6,1.07-5-21.72,6.33-1.47q4.43-1,6.92.09a6.6,6.6,0,0,1,3,8.06,7.17,7.17,0,0,1-2.44,3q6.6,6.19,8.58,8l-5.11,1.19-7.12-7.13Zm-0.87-3.74,1.49-.34a5.83,5.83,0,0,0,3.05-1.48,2.67,2.67,0,0,0,.51-2.53,2.44,2.44,0,0,0-1.57-2,6.62,6.62,0,0,0-3.44.11l-1.4.32Z" transform="translate(-4824.4 -1494.55)"/><path class="cls-1" d="M4993.39,1506.5a5.16,5.16,0,0,1,.81-3.68,4.83,4.83,0,0,1,6.46-.55,6.17,6.17,0,0,1,.61,7.14,4.76,4.76,0,0,1-6.44.56A5.18,5.18,0,0,1,4993.39,1506.5Z" transform="translate(-4824.4 -1494.55)"/></svg>